<mxfile host="Electron" agent="Mozilla/5.0 (Macintosh; Intel Mac OS X 10_15_7) AppleWebKit/537.36 (KHTML, like Gecko) draw.io/24.7.5 Chrome/126.0.6478.183 Electron/31.3.0 Safari/537.36" version="24.7.5">
  <diagram name="페이지-1" id="ebXY9EC8Lc7J-D8vdKvU">
    <mxGraphModel dx="1114" dy="894" grid="1" gridSize="10" guides="1" tooltips="1" connect="1" arrows="1" fold="1" page="1" pageScale="1" pageWidth="827" pageHeight="1169" math="0" shadow="0">
      <root>
        <mxCell id="0" />
        <mxCell id="1" parent="0" />
        <mxCell id="xKwvw2bJMoQeg-ilBIWW-35" value="" style="rounded=0;whiteSpace=wrap;html=1;fillColor=#dae8fc;strokeColor=none;opacity=80;fontStyle=1;verticalAlign=top;fontSize=13;" vertex="1" parent="1">
          <mxGeometry x="576" y="160" width="154" height="140" as="geometry" />
        </mxCell>
        <mxCell id="xKwvw2bJMoQeg-ilBIWW-3" value="애플리케이션 계층" style="rounded=0;whiteSpace=wrap;html=1;fillColor=#dae8fc;strokeColor=none;opacity=80;fontStyle=1;verticalAlign=top;fontSize=13;" vertex="1" parent="1">
          <mxGeometry x="196" y="40" width="534" height="120" as="geometry" />
        </mxCell>
        <mxCell id="xKwvw2bJMoQeg-ilBIWW-27" value="" style="rounded=0;whiteSpace=wrap;html=1;fillColor=#dae8fc;strokeColor=none;opacity=80;fontStyle=1;verticalAlign=top;fontSize=13;" vertex="1" parent="1">
          <mxGeometry x="196" y="160" width="154" height="140" as="geometry" />
        </mxCell>
        <mxCell id="xKwvw2bJMoQeg-ilBIWW-1" value="도메인 계층" style="rounded=0;whiteSpace=wrap;html=1;fillColor=#f8cecc;strokeColor=none;opacity=80;fontStyle=1;verticalAlign=bottom;" vertex="1" parent="1">
          <mxGeometry x="375" y="180" width="180" height="120" as="geometry" />
        </mxCell>
        <mxCell id="xKwvw2bJMoQeg-ilBIWW-2" value="영속성 계층" style="rounded=0;whiteSpace=wrap;html=1;fillColor=#d5e8d4;strokeColor=none;opacity=80;fontStyle=1;fontSize=13;verticalAlign=top;" vertex="1" parent="1">
          <mxGeometry x="762" y="40" width="150" height="260" as="geometry" />
        </mxCell>
        <mxCell id="xKwvw2bJMoQeg-ilBIWW-4" value="웹 계층" style="rounded=0;whiteSpace=wrap;html=1;fillColor=#d5e8d4;strokeColor=none;opacity=80;verticalAlign=top;fontStyle=1;fontSize=13;" vertex="1" parent="1">
          <mxGeometry x="12" y="40" width="150" height="260" as="geometry" />
        </mxCell>
        <mxCell id="xKwvw2bJMoQeg-ilBIWW-31" style="edgeStyle=orthogonalEdgeStyle;rounded=0;orthogonalLoop=1;jettySize=auto;html=1;entryX=0.5;entryY=0;entryDx=0;entryDy=0;endArrow=block;endFill=1;" edge="1" parent="1" source="xKwvw2bJMoQeg-ilBIWW-6" target="xKwvw2bJMoQeg-ilBIWW-29">
          <mxGeometry relative="1" as="geometry" />
        </mxCell>
        <mxCell id="xKwvw2bJMoQeg-ilBIWW-6" value="&lt;i&gt;&amp;lt;&amp;lt;interface&amp;gt;&amp;gt;&lt;/i&gt;&lt;div&gt;UpdateAccountState&lt;/div&gt;&lt;div&gt;Port&lt;/div&gt;" style="rounded=0;whiteSpace=wrap;html=1;" vertex="1" parent="1">
          <mxGeometry x="588" y="80" width="130" height="60" as="geometry" />
        </mxCell>
        <mxCell id="xKwvw2bJMoQeg-ilBIWW-7" value="Account" style="rounded=0;whiteSpace=wrap;html=1;" vertex="1" parent="1">
          <mxGeometry x="400" y="200" width="130" height="60" as="geometry" />
        </mxCell>
        <mxCell id="xKwvw2bJMoQeg-ilBIWW-8" style="edgeStyle=orthogonalEdgeStyle;rounded=0;orthogonalLoop=1;jettySize=auto;html=1;entryX=1;entryY=0.5;entryDx=0;entryDy=0;endArrow=block;endFill=0;" edge="1" parent="1" source="xKwvw2bJMoQeg-ilBIWW-10" target="xKwvw2bJMoQeg-ilBIWW-6">
          <mxGeometry relative="1" as="geometry">
            <mxPoint x="724" y="110" as="targetPoint" />
          </mxGeometry>
        </mxCell>
        <mxCell id="xKwvw2bJMoQeg-ilBIWW-9" style="edgeStyle=orthogonalEdgeStyle;rounded=0;orthogonalLoop=1;jettySize=auto;html=1;endArrow=block;endFill=1;" edge="1" parent="1" source="xKwvw2bJMoQeg-ilBIWW-10" target="xKwvw2bJMoQeg-ilBIWW-24">
          <mxGeometry relative="1" as="geometry" />
        </mxCell>
        <mxCell id="xKwvw2bJMoQeg-ilBIWW-10" value="AccountPersistence&lt;div&gt;Adapter&lt;/div&gt;" style="rounded=0;whiteSpace=wrap;html=1;" vertex="1" parent="1">
          <mxGeometry x="772" y="80" width="130" height="60" as="geometry" />
        </mxCell>
        <mxCell id="xKwvw2bJMoQeg-ilBIWW-11" style="edgeStyle=orthogonalEdgeStyle;rounded=0;orthogonalLoop=1;jettySize=auto;html=1;endArrow=block;endFill=0;" edge="1" parent="1" source="xKwvw2bJMoQeg-ilBIWW-14">
          <mxGeometry relative="1" as="geometry">
            <mxPoint x="340" y="110" as="targetPoint" />
          </mxGeometry>
        </mxCell>
        <mxCell id="xKwvw2bJMoQeg-ilBIWW-12" style="edgeStyle=orthogonalEdgeStyle;rounded=0;orthogonalLoop=1;jettySize=auto;html=1;endArrow=block;endFill=1;" edge="1" parent="1" source="xKwvw2bJMoQeg-ilBIWW-14" target="xKwvw2bJMoQeg-ilBIWW-6">
          <mxGeometry relative="1" as="geometry" />
        </mxCell>
        <mxCell id="xKwvw2bJMoQeg-ilBIWW-13" style="edgeStyle=orthogonalEdgeStyle;rounded=0;orthogonalLoop=1;jettySize=auto;html=1;endArrow=block;endFill=1;" edge="1" parent="1" source="xKwvw2bJMoQeg-ilBIWW-14" target="xKwvw2bJMoQeg-ilBIWW-7">
          <mxGeometry relative="1" as="geometry" />
        </mxCell>
        <mxCell id="xKwvw2bJMoQeg-ilBIWW-14" value="SendMoney&lt;div&gt;Service&lt;/div&gt;" style="rounded=0;whiteSpace=wrap;html=1;" vertex="1" parent="1">
          <mxGeometry x="400" y="80" width="130" height="60" as="geometry" />
        </mxCell>
        <mxCell id="xKwvw2bJMoQeg-ilBIWW-16" style="edgeStyle=orthogonalEdgeStyle;rounded=0;orthogonalLoop=1;jettySize=auto;html=1;entryX=0.5;entryY=0;entryDx=0;entryDy=0;endArrow=block;endFill=1;" edge="1" parent="1" source="xKwvw2bJMoQeg-ilBIWW-17" target="xKwvw2bJMoQeg-ilBIWW-23">
          <mxGeometry relative="1" as="geometry" />
        </mxCell>
        <mxCell id="xKwvw2bJMoQeg-ilBIWW-34" style="edgeStyle=orthogonalEdgeStyle;rounded=0;orthogonalLoop=1;jettySize=auto;html=1;entryX=0;entryY=0.5;entryDx=0;entryDy=0;endArrow=block;endFill=1;" edge="1" parent="1" source="xKwvw2bJMoQeg-ilBIWW-17" target="xKwvw2bJMoQeg-ilBIWW-19">
          <mxGeometry relative="1" as="geometry" />
        </mxCell>
        <mxCell id="xKwvw2bJMoQeg-ilBIWW-17" value="Account&lt;div&gt;Controller&lt;/div&gt;" style="rounded=0;whiteSpace=wrap;html=1;" vertex="1" parent="1">
          <mxGeometry x="22" y="80" width="130" height="60" as="geometry" />
        </mxCell>
        <mxCell id="xKwvw2bJMoQeg-ilBIWW-30" style="edgeStyle=orthogonalEdgeStyle;rounded=0;orthogonalLoop=1;jettySize=auto;html=1;entryX=0.5;entryY=0;entryDx=0;entryDy=0;endArrow=block;endFill=1;" edge="1" parent="1" source="xKwvw2bJMoQeg-ilBIWW-19" target="xKwvw2bJMoQeg-ilBIWW-28">
          <mxGeometry relative="1" as="geometry" />
        </mxCell>
        <mxCell id="xKwvw2bJMoQeg-ilBIWW-19" value="&lt;i&gt;&amp;lt;&amp;lt;interface&amp;gt;&amp;gt;&lt;/i&gt;&lt;div&gt;SendMoney&lt;/div&gt;&lt;div&gt;UseCase&lt;/div&gt;" style="rounded=0;whiteSpace=wrap;html=1;" vertex="1" parent="1">
          <mxGeometry x="209" y="80" width="130" height="60" as="geometry" />
        </mxCell>
        <mxCell id="xKwvw2bJMoQeg-ilBIWW-20" value="" style="endArrow=none;dashed=1;html=1;rounded=0;strokeWidth=2;" edge="1" parent="1">
          <mxGeometry width="50" height="50" relative="1" as="geometry">
            <mxPoint x="180" y="300" as="sourcePoint" />
            <mxPoint x="180" y="40" as="targetPoint" />
          </mxGeometry>
        </mxCell>
        <mxCell id="xKwvw2bJMoQeg-ilBIWW-21" value="" style="endArrow=none;dashed=1;html=1;rounded=0;strokeWidth=2;" edge="1" parent="1">
          <mxGeometry width="50" height="50" relative="1" as="geometry">
            <mxPoint x="746" y="300" as="sourcePoint" />
            <mxPoint x="746" y="40" as="targetPoint" />
          </mxGeometry>
        </mxCell>
        <mxCell id="xKwvw2bJMoQeg-ilBIWW-22" value="" style="endArrow=none;dashed=1;html=1;rounded=0;strokeWidth=2;" edge="1" parent="1">
          <mxGeometry width="50" height="50" relative="1" as="geometry">
            <mxPoint x="365" y="169.5" as="sourcePoint" />
            <mxPoint x="565" y="170" as="targetPoint" />
          </mxGeometry>
        </mxCell>
        <mxCell id="xKwvw2bJMoQeg-ilBIWW-23" value="웹 모델" style="rounded=0;whiteSpace=wrap;html=1;" vertex="1" parent="1">
          <mxGeometry x="22" y="200" width="130" height="60" as="geometry" />
        </mxCell>
        <mxCell id="xKwvw2bJMoQeg-ilBIWW-24" value="영속성 모델" style="rounded=0;whiteSpace=wrap;html=1;" vertex="1" parent="1">
          <mxGeometry x="772" y="200" width="130" height="60" as="geometry" />
        </mxCell>
        <mxCell id="xKwvw2bJMoQeg-ilBIWW-25" value="" style="endArrow=none;dashed=1;html=1;rounded=0;strokeWidth=2;" edge="1" parent="1">
          <mxGeometry width="50" height="50" relative="1" as="geometry">
            <mxPoint x="364" y="300" as="sourcePoint" />
            <mxPoint x="364" y="170" as="targetPoint" />
          </mxGeometry>
        </mxCell>
        <mxCell id="xKwvw2bJMoQeg-ilBIWW-26" value="" style="endArrow=none;dashed=1;html=1;rounded=0;strokeWidth=2;" edge="1" parent="1">
          <mxGeometry width="50" height="50" relative="1" as="geometry">
            <mxPoint x="566" y="300" as="sourcePoint" />
            <mxPoint x="566" y="170" as="targetPoint" />
          </mxGeometry>
        </mxCell>
        <mxCell id="xKwvw2bJMoQeg-ilBIWW-28" value="SendMoney&lt;div&gt;Command&lt;/div&gt;" style="rounded=0;whiteSpace=wrap;html=1;" vertex="1" parent="1">
          <mxGeometry x="209" y="200" width="130" height="60" as="geometry" />
        </mxCell>
        <mxCell id="xKwvw2bJMoQeg-ilBIWW-29" value="UpdateAccountState&lt;div&gt;Command&lt;/div&gt;" style="rounded=0;whiteSpace=wrap;html=1;" vertex="1" parent="1">
          <mxGeometry x="588" y="200" width="130" height="60" as="geometry" />
        </mxCell>
      </root>
    </mxGraphModel>
  </diagram>
</mxfile>
